# 3ds Max Wavefront OBJ Exporter v0.97b - (c)2007 guruware
# File Created: 11.04.2015 21:35:11

#
# object NGon006
#

v  0.000000 0.066037 0.417046
v  0.190872 -0.004991 0.460804
v  0.116222 0.135646 0.280583
v  0.294897 0.066037 0.294896
v  0.316293 -0.006042 0.384651
v  0.352685 -0.004991 0.352684
v  -0.048337 -0.006042 0.495641
v  0.000000 -0.004991 0.498770
v  -0.294896 0.066037 0.294896
v  -0.190871 -0.004991 0.460804
v  -0.116221 0.135646 0.280583
v  -0.384651 -0.006042 0.316290
v  -0.352684 -0.004991 0.352684
v  -0.417046 0.066037 -0.000000
v  -0.460804 -0.004991 0.190871
v  -0.280583 0.135646 0.116221
v  -0.495641 -0.006042 -0.048340
v  -0.498770 -0.004991 -0.000000
v  -0.294896 0.066037 -0.294897
v  -0.460804 -0.004991 -0.190872
v  -0.280583 0.135646 -0.116222
v  -0.316290 -0.006042 -0.384654
v  -0.352684 -0.004991 -0.352684
v  0.000000 0.066037 -0.417047
v  -0.190871 -0.004991 -0.460804
v  -0.116221 0.135646 -0.280584
v  0.048339 -0.006042 -0.495643
v  0.000000 -0.004991 -0.498771
v  0.294897 0.066037 -0.294897
v  0.190872 -0.004991 -0.460804
v  0.116222 0.135646 -0.280584
v  0.384653 -0.006042 -0.316293
v  0.352684 -0.004991 -0.352684
v  0.417047 0.066037 -0.000000
v  0.460804 -0.004991 -0.190872
v  0.280584 0.135646 -0.116222
v  0.495643 -0.006042 0.048337
v  0.498771 -0.004991 -0.000000
v  0.280584 0.135646 0.116221
v  0.145016 -0.006042 0.476411
v  -0.234332 -0.006042 0.439414
v  -0.476411 -0.006042 0.145014
v  -0.439414 -0.006042 -0.234334
v  -0.145014 -0.006042 -0.476413
v  0.234334 -0.006042 -0.439417
v  0.476413 -0.006042 -0.145016
v  0.439417 -0.006042 0.234332
v  0.460804 -0.004991 0.190871
v  0.097052 -0.006672 0.487911
v  0.145016 -0.015695 0.476411
v  0.276380 -0.006672 0.413631
v  0.316293 -0.015695 0.384651
v  -0.097051 -0.006672 0.487911
v  -0.048337 -0.015695 0.495641
v  -0.276379 -0.006672 0.413631
v  -0.234332 -0.015695 0.439414
v  -0.413631 -0.006672 0.276379
v  -0.384651 -0.015695 0.316290
v  -0.487911 -0.006672 0.097051
v  -0.476411 -0.015695 0.145014
v  -0.487911 -0.006672 -0.097052
v  -0.495641 -0.015695 -0.048340
v  -0.413631 -0.006672 -0.276380
v  -0.439414 -0.015695 -0.234334
v  -0.276379 -0.006672 -0.413631
v  -0.316290 -0.015695 -0.384654
v  -0.097051 -0.006672 -0.487911
v  -0.145014 -0.015695 -0.476413
v  0.097052 -0.006672 -0.487911
v  0.048339 -0.015695 -0.495643
v  0.276380 -0.006672 -0.413631
v  0.234334 -0.015695 -0.439417
v  0.413631 -0.006672 -0.276380
v  0.384653 -0.015695 -0.316293
v  0.487911 -0.006672 -0.097052
v  0.476413 -0.015695 -0.145016
v  0.487911 -0.006672 0.097051
v  0.495643 -0.015695 0.048337
v  0.413632 -0.006672 0.276379
v  0.439417 -0.015695 0.234332
v  0.190872 -0.016747 0.460804
v  0.000000 -0.324381 0.169582
v  0.352685 -0.016747 0.352684
v  0.119913 -0.324381 0.119912
v  0.000000 -0.016747 0.498770
v  -0.190871 -0.016747 0.460804
v  -0.119912 -0.324381 0.119912
v  -0.352684 -0.016747 0.352684
v  -0.460804 -0.016747 0.190871
v  -0.169582 -0.324381 -0.000000
v  -0.498770 -0.016747 -0.000000
v  -0.460804 -0.016747 -0.190872
v  -0.119912 -0.324381 -0.119913
v  -0.352684 -0.016747 -0.352684
v  -0.190871 -0.016747 -0.460804
v  0.000000 -0.324381 -0.169582
v  0.000000 -0.016747 -0.498771
v  0.190872 -0.016747 -0.460804
v  0.119913 -0.324381 -0.119913
v  0.352684 -0.016747 -0.352684
v  0.460804 -0.016747 -0.190872
v  0.169582 -0.324381 -0.000000
v  0.498771 -0.016747 -0.000000
v  0.460804 -0.016747 0.190871
v  0.000000 -0.480527 -0.000000
v  0.048340 -0.006042 0.495641
v  0.048340 -0.015695 0.495641
v  0.097052 -0.015065 0.487911
v  0.234334 -0.006042 0.439414
v  0.234334 -0.015695 0.439414
v  0.276380 -0.015065 0.413631
v  -0.145014 -0.006042 0.476411
v  -0.145014 -0.015695 0.476411
v  -0.097051 -0.015065 0.487911
v  -0.316290 -0.006042 0.384651
v  -0.316290 -0.015695 0.384651
v  -0.276379 -0.015065 0.413631
v  -0.439414 -0.006042 0.234332
v  -0.439414 -0.015695 0.234332
v  -0.413631 -0.015065 0.276379
v  -0.495641 -0.006042 0.048337
v  -0.495641 -0.015695 0.048337
v  -0.487911 -0.015065 0.097051
v  -0.476411 -0.006042 -0.145016
v  -0.476411 -0.015695 -0.145016
v  -0.487911 -0.015065 -0.097052
v  -0.384651 -0.006042 -0.316293
v  -0.384651 -0.015695 -0.316293
v  -0.413631 -0.015065 -0.276380
v  -0.234332 -0.006042 -0.439417
v  -0.234332 -0.015695 -0.439417
v  -0.276379 -0.015065 -0.413631
v  -0.048337 -0.006042 -0.495643
v  -0.048337 -0.015695 -0.495643
v  -0.097051 -0.015065 -0.487911
v  0.145016 -0.006042 -0.476413
v  0.145016 -0.015695 -0.476413
v  0.097052 -0.015065 -0.487911
v  0.316293 -0.006042 -0.384654
v  0.316293 -0.015695 -0.384654
v  0.276380 -0.015065 -0.413631
v  0.439417 -0.006042 -0.234334
v  0.439417 -0.015695 -0.234334
v  0.413631 -0.015065 -0.276380
v  0.495643 -0.006042 -0.048340
v  0.495643 -0.015695 -0.048340
v  0.487911 -0.015065 -0.097052
v  0.476413 -0.006042 0.145014
v  0.476413 -0.015695 0.145014
v  0.487911 -0.015065 0.097051
v  0.384654 -0.006042 0.316290
v  0.384654 -0.015695 0.316290
v  0.413632 -0.015065 0.276379
# 153 vertices

vn 0.172924 0.809951 0.560426
vn 0.421487 0.753468 0.504614
vn -0.058788 0.753467 0.654852
vn -0.274005 0.809951 0.518557
vn -0.504624 0.753467 0.421477
vn -0.560426 0.809951 0.172924
vn -0.654852 0.753467 -0.058786
vn -0.518557 0.809951 -0.274005
vn -0.421491 0.753468 -0.504610
vn -0.172924 0.809951 -0.560426
vn 0.058761 0.753468 -0.654853
vn 0.274005 0.809951 -0.518557
vn 0.504601 0.753468 -0.421501
vn 0.560426 0.809951 -0.172924
vn 0.654853 0.753468 0.058765
vn 0.321304 0.890801 0.321305
vn 0.454393 0.890801 -0.000000
vn 0.321305 0.890801 -0.321305
vn 0.000000 0.890801 -0.454393
vn -0.321305 0.890801 -0.321304
vn -0.454393 0.890801 -0.000000
vn -0.321304 0.890801 0.321305
vn 0.000000 0.890801 0.454393
vn 0.172499 0.809389 0.561368
vn -0.274980 0.809384 0.518926
vn -0.561372 0.809386 0.172497
vn -0.518920 0.809392 -0.274966
vn -0.172508 0.809401 -0.561348
vn 0.274939 0.809408 -0.518910
vn 0.561340 0.809406 -0.172512
vn 0.518916 0.809398 0.274956
vn 0.560426 0.809951 0.172924
vn 0.278468 0.000000 0.960445
vn 0.195089 0.000000 0.980785
vn 0.624817 0.000000 0.780771
vn 0.555569 0.000000 0.831470
vn -0.110275 0.000000 0.993901
vn -0.195091 0.000000 0.980785
vn -0.482232 0.000000 0.876043
vn -0.555572 0.000000 0.831468
vn -0.482232 0.000000 0.876044
vn -0.780773 0.000000 0.624815
vn -0.831470 0.000000 0.555570
vn -0.960446 0.000000 0.278465
vn -0.980786 0.000000 0.195089
vn -0.993901 0.000018 -0.110277
vn -0.980786 0.000012 -0.195088
vn -0.993901 0.000019 -0.110276
vn -0.876043 0.000012 -0.482234
vn -0.831470 0.000001 -0.555570
vn -0.876043 0.000012 -0.482233
vn -0.624815 0.000000 -0.780773
vn -0.555572 0.000000 -0.831468
vn -0.278464 0.000000 -0.960447
vn -0.195092 0.000000 -0.980785
vn 0.110278 0.000000 -0.993901
vn 0.195091 0.000000 -0.980785
vn 0.482233 0.000000 -0.876043
vn 0.555572 0.000000 -0.831469
vn 0.780772 0.000000 -0.624816
vn 0.831469 0.000000 -0.555572
vn 0.960446 0.000000 -0.278467
vn 0.980786 -0.000001 -0.195089
vn 0.960446 -0.000000 -0.278467
vn 0.993901 -0.000000 0.110275
vn 0.980785 0.000000 0.195090
vn 0.993901 0.000000 0.110275
vn 0.876044 0.000000 0.482231
vn 0.831468 0.000000 0.555572
vn 0.197951 -0.735843 0.647573
vn 0.178194 -0.734532 0.654759
vn 0.147922 -0.728045 0.669380
vn 0.439518 -0.729306 0.524344
vn 0.416407 -0.729861 0.542134
vn 0.368727 -0.728045 0.577919
vn -0.059990 -0.729306 0.681553
vn -0.088901 -0.729860 0.677791
vn -0.147921 -0.728045 0.669380
vn -0.317937 -0.735842 0.597873
vn -0.336984 -0.734532 0.588986
vn -0.368727 -0.728045 0.577920
vn -0.524354 -0.729306 0.439507
vn -0.542135 -0.729860 0.416406
vn -0.577920 -0.728045 0.368727
vn -0.647574 -0.735843 0.197948
vn -0.654760 -0.734532 0.178192
vn -0.669380 -0.728045 0.147922
vn -0.681553 -0.729306 -0.059986
vn -0.677791 -0.729860 -0.088904
vn -0.669380 -0.728045 -0.147921
vn -0.597877 -0.735844 -0.317926
vn -0.588985 -0.734533 -0.336984
vn -0.577919 -0.728045 -0.368727
vn -0.439521 -0.729306 -0.524341
vn -0.416404 -0.729861 -0.542135
vn -0.368727 -0.728045 -0.577919
vn -0.197965 -0.735845 -0.647566
vn -0.178192 -0.734534 -0.654758
vn -0.147921 -0.728045 -0.669380
vn 0.059962 -0.729307 -0.681554
vn 0.088904 -0.729862 -0.677789
vn 0.147921 -0.728045 -0.669380
vn 0.317907 -0.735847 -0.597883
vn 0.336982 -0.734535 -0.588984
vn 0.368728 -0.728045 -0.577919
vn 0.524331 -0.729307 -0.439532
vn 0.542134 -0.729862 -0.416404
vn 0.577919 -0.728045 -0.368728
vn 0.647563 -0.735846 -0.197970
vn 0.654757 -0.734534 -0.178193
vn 0.669380 -0.728045 -0.147921
vn 0.681554 -0.729307 0.059967
vn 0.677789 -0.729861 0.088903
vn 0.669380 -0.728045 0.147921
vn 0.597879 -0.735845 0.317919
vn 0.588986 -0.734534 0.336981
vn 0.577919 -0.728045 0.368727
vn 0.597883 -0.735847 -0.317909
vn 0.579901 -0.727275 -0.367133
vn 0.197970 -0.735846 -0.647563
vn 0.150451 -0.727275 -0.669654
vn -0.317917 -0.735845 -0.597880
vn -0.367132 -0.727275 -0.579901
vn -0.647572 -0.735843 -0.197953
vn -0.669654 -0.727275 -0.150451
vn -0.597873 -0.735842 0.317937
vn -0.579902 -0.727275 0.367132
vn -0.197945 -0.735842 0.647575
vn -0.150451 -0.727275 0.669654
vn 0.317929 -0.735843 0.597876
vn 0.367132 -0.727275 0.579901
vn 0.647566 -0.735845 0.197965
vn 0.669654 -0.727275 0.150451
vn 0.110277 0.000000 0.993901
vn 0.000001 0.000000 1.000000
vn 0.382682 0.000000 0.923880
vn 0.482233 0.000000 0.876043
vn 0.707107 0.000000 0.707107
vn -0.278466 0.000000 0.960446
vn -0.382684 0.000000 0.923879
vn -0.624816 0.000000 0.780772
vn -0.707106 0.000000 0.707108
vn -0.876043 0.000000 0.482233
vn -0.923878 0.000000 0.382686
vn -0.993901 0.000000 0.110276
vn -1.000000 0.000000 0.000001
vn -0.993901 -0.000000 0.110276
vn -0.960446 -0.000002 -0.278468
vn -0.923880 0.000007 -0.382683
vn -0.960446 -0.000002 -0.278467
vn -0.980786 0.000010 -0.195088
vn -1.000000 0.000001 0.000002
vn -0.780772 0.000000 -0.624816
vn -0.707108 0.000000 -0.707106
vn -0.831470 0.000000 -0.555570
vn -0.923880 0.000008 -0.382683
vn -0.482232 0.000000 -0.876044
vn -0.382683 0.000000 -0.923880
vn -0.110277 0.000000 -0.993901
vn -0.000001 0.000000 -1.000000
vn 0.278466 0.000000 -0.960446
vn 0.382681 0.000000 -0.923880
vn 0.624816 0.000000 -0.780772
vn 0.707107 0.000000 -0.707107
vn 0.876043 0.000000 -0.482233
vn 0.923880 0.000000 -0.382683
vn 0.993901 -0.000000 -0.110278
vn 1.000000 -0.000000 0.000001
vn 0.993901 0.000000 -0.110278
vn 0.960446 0.000000 0.278465
vn 0.923879 0.000000 0.382685
vn 1.000000 0.000000 0.000001
vn 0.780772 0.000000 0.624816
vn 0.000000 1.000000 -0.000000
vn 0.274005 0.809951 0.518557
vn 0.274969 0.809390 0.518921
vn 0.336308 0.778865 0.529402
vn 0.370154 0.765407 0.526439
vn -0.172496 0.809384 0.561375
vn -0.136545 0.778869 0.612143
vn -0.110501 0.765403 0.633994
vn -0.172924 0.809951 0.560426
vn -0.518926 0.809384 0.274981
vn -0.529403 0.778869 0.336297
vn -0.526438 0.765402 0.370167
vn -0.518557 0.809951 0.274005
vn -0.561363 0.809392 -0.172501
vn -0.612151 0.778864 -0.136537
vn -0.633990 0.765405 -0.110507
vn -0.560426 0.809951 -0.172924
vn -0.274952 0.809400 -0.518915
vn -0.336322 0.778859 -0.529401
vn -0.370144 0.765411 -0.526440
vn -0.274005 0.809951 -0.518557
vn 0.172512 0.809405 -0.561340
vn 0.136520 0.778856 -0.612165
vn 0.110529 0.765417 -0.633972
vn 0.172924 0.809951 -0.560426
vn 0.518911 0.809407 -0.274941
vn 0.529400 0.778855 -0.336334
vn 0.526442 0.765416 -0.370131
vn 0.518557 0.809951 -0.274005
vn 0.561349 0.809400 0.172508
vn 0.612160 0.778859 0.136526
vn 0.633977 0.765413 0.110522
vn 0.058788 0.753467 0.654852
vn 0.110503 0.765404 0.633992
vn 0.136542 0.778867 0.612145
vn -0.421475 0.753467 0.504625
vn -0.370171 0.765400 0.526437
vn -0.336296 0.778869 0.529403
vn -0.654852 0.753467 0.058788
vn -0.633993 0.765403 0.110503
vn -0.612146 0.778867 0.136542
vn -0.504612 0.753468 -0.421489
vn -0.526440 0.765408 -0.370150
vn -0.529402 0.778863 -0.336312
vn -0.058763 0.753468 -0.654853
vn -0.110526 0.765415 -0.633975
vn -0.136524 0.778858 -0.612162
vn 0.421501 0.753468 -0.504601
vn 0.370130 0.765417 -0.526442
vn 0.336336 0.778854 -0.529400
vn 0.654853 0.753468 -0.058763
vn 0.633974 0.765415 -0.110527
vn 0.612164 0.778856 -0.136521
vn 0.504613 0.753468 0.421488
vn 0.526439 0.765409 0.370149
vn 0.529401 0.778862 0.336316
vn 0.518557 0.809951 0.274005
vn 0.088903 -0.729860 0.677791
vn 0.059991 -0.729306 0.681553
vn 0.133921 -0.730823 0.669301
vn 0.336983 -0.734533 0.588985
vn 0.378570 -0.730823 0.567964
vn -0.178192 -0.734532 0.654760
vn -0.133922 -0.730823 0.669300
vn -0.416407 -0.729859 0.542135
vn -0.439505 -0.729306 0.524356
vn -0.378571 -0.730823 0.567963
vn -0.588986 -0.734532 0.336984
vn -0.567964 -0.730823 0.378570
vn -0.677791 -0.729860 0.088903
vn -0.681553 -0.729306 0.059990
vn -0.669301 -0.730823 0.133920
vn -0.654759 -0.734533 -0.178192
vn -0.669301 -0.730823 -0.133921
vn -0.542134 -0.729861 -0.416406
vn -0.524343 -0.729306 -0.439519
vn -0.567963 -0.730823 -0.378571
vn -0.336982 -0.734534 -0.588985
vn -0.378572 -0.730823 -0.567962
vn -0.088903 -0.729862 -0.677789
vn -0.059964 -0.729307 -0.681554
vn -0.133921 -0.730823 -0.669301
vn 0.178193 -0.734534 -0.654757
vn 0.133921 -0.730823 -0.669301
vn 0.416404 -0.729862 -0.542134
vn 0.439532 -0.729307 -0.524331
vn 0.378573 -0.730823 -0.567962
vn 0.588984 -0.734535 -0.336982
vn 0.567962 -0.730823 -0.378573
vn 0.677789 -0.729862 -0.088904
vn 0.681554 -0.729307 -0.059965
vn 0.669301 -0.730823 -0.133919
vn 0.654758 -0.734534 0.178192
vn 0.669301 -0.730823 0.133920
vn 0.542135 -0.729861 0.416405
vn 0.524343 -0.729306 0.439519
vn 0.567963 -0.730823 0.378572
vn 0.669654 -0.727275 -0.150451
vn 0.367133 -0.727275 -0.579901
vn -0.150451 -0.727275 -0.669654
vn -0.579901 -0.727275 -0.367132
vn -0.669654 -0.727275 0.150451
vn -0.367132 -0.727275 0.579901
vn 0.150451 -0.727275 0.669654
vn 0.579901 -0.727275 0.367132
# 278 vertex normals

g NGon006
s off
f 1//1 2//1 3//1 
f 4//2 5//2 6//2 
f 1//3 7//3 8//3 
f 9//4 10//4 11//4 
f 9//5 12//5 13//5 
f 14//6 15//6 16//6 
f 14//7 17//7 18//7 
f 19//8 20//8 21//8 
f 19//9 22//9 23//9 
f 24//10 25//10 26//10 
f 24//11 27//11 28//11 
f 29//12 30//12 31//12 
f 29//13 32//13 33//13 
f 34//14 35//14 36//14 
f 34//15 37//15 38//15 
f 3//16 4//16 39//16 
f 39//17 34//17 36//17 
f 36//18 29//18 31//18 
f 31//19 24//19 26//19 
f 26//20 19//20 21//20 
f 21//21 14//21 16//21 
f 16//22 9//22 11//22 
f 11//23 1//23 3//23 
f 1//24 40//24 2//24 
f 9//25 41//25 10//25 
f 14//26 42//26 15//26 
f 19//27 43//27 20//27 
f 24//28 44//28 25//28 
f 29//29 45//29 30//29 
f 34//30 46//30 35//30 
f 4//31 47//31 48//31 
f 34//32 39//32 48//32 
s 1
f 40//33 49//34 50//33 
f 5//35 51//36 52//35 
f 7//37 53//38 54//37 
f 41//39 55//40 56//41 
f 12//42 57//43 58//42 
f 42//44 59//45 60//44 
f 17//46 61//47 62//48 
f 43//49 63//50 64//51 
f 22//52 65//53 66//52 
f 44//54 67//55 68//54 
f 27//56 69//57 70//56 
f 45//58 71//59 72//58 
f 32//60 73//61 74//60 
f 46//62 75//63 76//64 
f 37//65 77//66 78//67 
f 47//68 79//69 80//68 
s 2
f 81//70 50//71 82//72 
s 4
f 83//73 52//74 84//75 
s 8
f 85//76 54//77 82//78 
s 16
f 86//79 56//80 87//81 
s 32
f 88//82 58//83 87//84 
s 64
f 89//85 60//86 90//87 
s 128
f 91//88 62//89 90//90 
s 256
f 92//91 64//92 93//93 
s 512
f 94//94 66//95 93//96 
s 1024
f 95//97 68//98 96//99 
s 2048
f 97//100 70//101 96//102 
s 4096
f 98//103 72//104 99//105 
s 8192
f 100//106 74//107 99//108 
s 16384
f 101//109 76//110 102//111 
s 32768
f 103//112 78//113 102//114 
s 65536
f 104//115 80//116 84//117 
s 8192
f 101//118 105//119 99//108 
s 2048
f 98//120 105//121 96//102 
s 512
f 95//122 105//123 93//96 
s 128
f 92//124 105//125 90//90 
s 32
f 89//126 105//127 87//84 
s 8
f 86//128 105//129 82//78 
s 4
f 81//130 105//131 84//75 
s 32768
f 104//132 105//133 102//114 
s 1
f 106//134 8//135 107//134 
f 49//34 106//134 108//34 
f 50//33 81//136 40//33 
f 109//137 2//136 110//137 
f 51//36 109//137 111//36 
f 52//35 83//138 5//35 
f 112//139 10//140 113//139 
f 53//38 112//139 114//38 
f 54//37 85//135 7//37 
f 115//141 13//142 116//141 
f 55//40 115//141 117//40 
f 56//41 86//140 41//39 
f 118//143 15//144 119//143 
f 57//43 118//143 120//43 
f 58//42 88//142 12//42 
f 121//145 18//146 122//147 
f 59//45 121//145 123//45 
f 60//44 89//144 42//44 
f 124//148 20//149 125//150 
f 61//47 124//148 126//151 
f 62//48 91//152 17//46 
f 127//153 23//154 128//153 
f 63//50 127//153 129//155 
f 64//51 92//156 43//49 
f 130//157 25//158 131//157 
f 65//53 130//157 132//53 
f 66//52 94//154 22//52 
f 133//159 28//160 134//159 
f 67//55 133//159 135//55 
f 68//54 95//158 44//54 
f 136//161 30//162 137//161 
f 69//57 136//161 138//57 
f 70//56 97//160 27//56 
f 139//163 33//164 140//163 
f 71//59 139//163 141//59 
f 72//58 98//162 45//58 
f 142//165 35//166 143//165 
f 73//61 142//165 144//61 
f 74//60 100//164 32//60 
f 145//167 38//168 146//169 
f 75//63 145//167 147//63 
f 76//64 101//166 46//62 
f 148//170 48//171 149//170 
f 77//66 148//170 150//66 
f 78//67 103//172 37//65 
f 151//173 6//138 152//173 
f 79//69 151//173 153//69 
f 80//68 104//171 47//68 
s off
f 39//174 36//174 3//174 
f 2//175 4//175 3//175 
f 4//176 2//176 109//176 
f 4//177 109//177 51//177 
f 4//178 51//178 5//178 
f 1//179 10//179 112//179 
f 1//180 112//180 53//180 
f 1//181 53//181 7//181 
f 10//182 1//182 11//182 
f 9//183 15//183 118//183 
f 9//184 118//184 57//184 
f 9//185 57//185 12//185 
f 15//186 9//186 16//186 
f 14//187 20//187 124//187 
f 14//188 124//188 61//188 
f 14//189 61//189 17//189 
f 20//190 14//190 21//190 
f 19//191 25//191 130//191 
f 19//192 130//192 65//192 
f 19//193 65//193 22//193 
f 25//194 19//194 26//194 
f 24//195 30//195 136//195 
f 24//196 136//196 69//196 
f 24//197 69//197 27//197 
f 30//198 24//198 31//198 
f 29//199 35//199 142//199 
f 29//200 142//200 73//200 
f 29//201 73//201 32//201 
f 35//202 29//202 36//202 
f 34//203 48//203 148//203 
f 34//204 148//204 77//204 
f 34//205 77//205 37//205 
f 1//206 8//206 106//206 
f 1//207 106//207 49//207 
f 1//208 49//208 40//208 
f 9//209 13//209 115//209 
f 9//210 115//210 55//210 
f 9//211 55//211 41//211 
f 14//212 18//212 121//212 
f 14//213 121//213 59//213 
f 14//214 59//214 42//214 
f 19//215 23//215 127//215 
f 19//216 127//216 63//216 
f 19//217 63//217 43//217 
f 24//218 28//218 133//218 
f 24//219 133//219 67//219 
f 24//220 67//220 44//220 
f 29//221 33//221 139//221 
f 29//222 139//222 71//222 
f 29//223 71//223 45//223 
f 34//224 38//224 145//224 
f 34//225 145//225 75//225 
f 34//226 75//226 46//226 
f 4//227 6//227 151//227 
f 4//228 151//228 79//228 
f 4//229 79//229 47//229 
f 39//230 4//230 48//230 
s 1
f 49//34 108//34 50//33 
f 51//36 111//36 52//35 
f 53//38 114//38 54//37 
f 55//40 117//40 56//41 
f 57//43 120//43 58//42 
f 59//45 123//45 60//44 
f 61//47 126//151 62//48 
f 63//50 129//155 64//51 
f 65//53 132//53 66//52 
f 67//55 135//55 68//54 
f 69//57 138//57 70//56 
f 71//59 141//59 72//58 
f 73//61 144//61 74//60 
f 75//63 147//63 76//64 
f 77//66 150//66 78//67 
f 79//69 153//69 80//68 
s 2
f 107//231 85//232 82//72 
f 108//233 107//231 82//72 
f 50//71 108//233 82//72 
s 4
f 110//234 81//130 84//75 
f 111//235 110//234 84//75 
f 52//74 111//235 84//75 
s 8
f 113//236 86//128 82//78 
f 114//237 113//236 82//78 
f 54//77 114//237 82//78 
s 16
f 116//238 88//239 87//81 
f 117//240 116//238 87//81 
f 56//80 117//240 87//81 
s 32
f 119//241 89//126 87//84 
f 120//242 119//241 87//84 
f 58//83 120//242 87//84 
s 64
f 122//243 91//244 90//87 
f 123//245 122//243 90//87 
f 60//86 123//245 90//87 
s 128
f 125//246 92//124 90//90 
f 126//247 125//246 90//90 
f 62//89 126//247 90//90 
s 256
f 128//248 94//249 93//93 
f 129//250 128//248 93//93 
f 64//92 129//250 93//93 
s 512
f 131//251 95//122 93//96 
f 132//252 131//251 93//96 
f 66//95 132//252 93//96 
s 1024
f 134//253 97//254 96//99 
f 135//255 134//253 96//99 
f 68//98 135//255 96//99 
s 2048
f 137//256 98//120 96//102 
f 138//257 137//256 96//102 
f 70//101 138//257 96//102 
s 4096
f 140//258 100//259 99//105 
f 141//260 140//258 99//105 
f 72//104 141//260 99//105 
s 8192
f 143//261 101//118 99//108 
f 144//262 143//261 99//108 
f 74//107 144//262 99//108 
s 16384
f 146//263 103//264 102//111 
f 147//265 146//263 102//111 
f 76//110 147//265 102//111 
s 32768
f 149//266 104//132 102//114 
f 150//267 149//266 102//114 
f 78//113 150//267 102//114 
s 65536
f 152//268 83//269 84//117 
f 153//270 152//268 84//117 
f 80//116 153//270 84//117 
s 16384
f 101//109 102//111 105//271 
s 4096
f 98//103 99//105 105//272 
s 1024
f 95//97 96//99 105//273 
s 256
f 92//91 93//93 105//274 
s 64
f 89//85 90//87 105//275 
s 16
f 86//79 87//81 105//276 
s 2
f 81//70 82//72 105//277 
s 65536
f 104//115 84//117 105//278 
s 1
f 8//135 85//135 107//134 
f 106//134 107//134 108//34 
f 81//136 2//136 40//33 
f 2//136 81//136 110//137 
f 109//137 110//137 111//36 
f 83//138 6//138 5//35 
f 10//140 86//140 113//139 
f 112//139 113//139 114//38 
f 85//135 8//135 7//37 
f 13//142 88//142 116//141 
f 115//141 116//141 117//40 
f 86//140 10//140 41//39 
f 15//144 89//144 119//143 
f 118//143 119//143 120//43 
f 88//142 13//142 12//42 
f 18//146 91//152 122//147 
f 121//145 122//147 123//45 
f 89//144 15//144 42//44 
f 20//149 92//156 125//150 
f 124//148 125//150 126//151 
f 91//152 18//146 17//46 
f 23//154 94//154 128//153 
f 127//153 128//153 129//155 
f 92//156 20//149 43//49 
f 25//158 95//158 131//157 
f 130//157 131//157 132//53 
f 94//154 23//154 22//52 
f 28//160 97//160 134//159 
f 133//159 134//159 135//55 
f 95//158 25//158 44//54 
f 30//162 98//162 137//161 
f 136//161 137//161 138//57 
f 97//160 28//160 27//56 
f 33//164 100//164 140//163 
f 139//163 140//163 141//59 
f 98//162 30//162 45//58 
f 35//166 101//166 143//165 
f 142//165 143//165 144//61 
f 100//164 33//164 32//60 
f 38//168 103//172 146//169 
f 145//167 146//169 147//63 
f 101//166 35//166 46//62 
f 48//171 104//171 149//170 
f 148//170 149//170 150//66 
f 103//172 38//168 37//65 
f 6//138 83//138 152//173 
f 151//173 152//173 153//69 
f 104//171 48//171 47//68 
s off
f 36//174 31//174 26//174 
f 26//174 21//174 16//174 
f 16//174 11//174 3//174 
f 26//174 16//174 3//174 
f 36//174 26//174 3//174 
# 0 polygons - 302 triangles

